<svg width="24" height="24" viewBox="0 0 24 24" fill="none" xmlns="http://www.w3.org/2000/svg">
<path d="M22.2026 4.13794H1.79742C0.804703 4.13794 0 4.94264 0 5.93536V18.0647C0 19.0574 0.804703 19.8621 1.79742 19.8621H22.2026C23.1952 19.8621 24 19.0574 24 18.0647V5.93536C24 4.94264 23.1953 4.13794 22.2026 4.13794Z" fill="#41479B"/>
<path d="M23.9751 5.63821C23.8335 4.787 23.094 4.13788 22.2026 4.13788H21.7349L14.069 9.16039V4.13793H9.93103V9.16044L2.26509 4.13793H1.79742C0.906 4.13793 0.166547 4.787 0.0248906 5.63825L6.57698 9.93107H0V14.069H6.57698L0.0248906 18.3617C0.166547 19.2129 0.906 19.8621 1.79742 19.8621H2.26509L9.93103 14.8395V19.8621H14.069V14.8395L21.7349 19.8621H22.2026C23.094 19.8621 23.8335 19.213 23.9751 18.3617L17.423 14.0689H24V9.93097H17.423L23.9751 5.63821Z" fill="#F5F5F5"/>
<path d="M13.2414 4.13794H10.7586V10.7586H0V13.2414H10.7586V19.8621H13.2414V13.2414H24V10.7586H13.2414V4.13794Z" fill="#FF4B55"/>
<path d="M1.16144 19.7462L9.90752 14.069H8.38745L0.431641 19.2333C0.626313 19.4605 0.876484 19.6385 1.16144 19.7462Z" fill="#FF4B55"/>
<path d="M16.2369 14.069H14.7168L23.1879 19.5676C23.4249 19.412 23.6227 19.2017 23.7638 18.9548L16.2369 14.069Z" fill="#FF4B55"/>
<path d="M0.189453 5.13163L7.58305 9.93102H9.10311L0.725047 4.49258C0.500094 4.66002 0.316016 4.87893 0.189453 5.13163Z" fill="#FF4B55"/>
<path d="M15.5884 9.93103L23.5588 4.7572C23.362 4.53075 23.1098 4.35375 22.8229 4.24814L14.0684 9.93103H15.5884Z" fill="#FF4B55"/>
</svg>
